<?xml version="1.0" encoding="UTF-8" standalone="no"?>
<!DOCTYPE svg PUBLIC "-//W3C//DTD SVG 1.1//EN" "http://www.w3.org/Graphics/SVG/1.1/DTD/svg11.dtd">
<svg width="100%" height="100%" viewBox="0 0 35 32" version="1.1" xmlns="http://www.w3.org/2000/svg" xmlns:xlink="http://www.w3.org/1999/xlink" xml:space="preserve" xmlns:serif="http://www.serif.com/" style="fill-rule:evenodd;clip-rule:evenodd;stroke-linejoin:round;stroke-miterlimit:2;">
    <g transform="matrix(0.801262,0,0,1,2.78233,0)">
        <path d="M24,5.006C24,3.944 23.473,2.925 22.536,2.173C21.598,1.422 20.326,1 19,1C19,1 19,1 19,1C17.674,1 16.402,1.422 15.464,2.173C14.527,2.925 14,3.944 14,5.006C14,10.747 14,21.253 14,26.994C14,28.056 14.527,29.075 15.464,29.827C16.402,30.578 17.674,31 19,31C19,31 19,31 19,31C20.326,31 21.598,30.578 22.536,29.827C23.473,29.075 24,28.056 24,26.994C24,21.253 24,10.747 24,5.006Z" style="fill:rgb(37,99,235);"/>
    </g>
    <g transform="matrix(4.90632e-17,0.801262,-0.8,4.89859e-17,30.8063,-2.22399)">
        <path d="M24,6.007C24,4.679 23.473,3.406 22.536,2.467C21.598,1.528 20.326,1 19,1C19,1 19,1 19,1C17.674,1 16.402,1.528 15.464,2.467C14.527,3.406 14,4.679 14,6.007C14,11.554 14,20.446 14,25.993C14,27.321 14.527,28.594 15.464,29.533C16.402,30.472 17.674,31 19,31C19,31 19,31 19,31C20.326,31 21.598,30.472 22.536,29.533C23.473,28.594 24,27.321 24,25.993C24,20.446 24,11.554 24,6.007Z" style="fill:rgb(37,99,235);"/>
    </g>
</svg>
